# xmcd
#
# Track frame offsets:
#	150
#	11609
#	32382
#	52546
#	66021
#	82404
#	99169
#	117132
#	136242
#	150477
#	166606
#	174632
#
# Disc length: 2501 seconds
# Revision: 0
# Processed by: cddbd v1.5.2PL0 Copyright (c) Steve Scherf et al.
# Submitted via: dBpowerAMP V12.0
#
DISCID=8009c30c
DTITLE=Peter Karp and Sue Foley - Beyond the Crossroads [Blind Pig BPCD 5146]
DYEAR=2012
DGENRE=Blues
TTITLE0=We're Gonna Make It
TTITLE1=Analyze'n Blues
TTITLE2=Beyond the Crossroads
TTITLE3=Fine Love
TTITLE4=At the Same Time
TTITLE5=Take Your Time
TTITLE6=More Than I Bargained For
TTITLE7=Blowin'
TTITLE8=Resistance
TTITLE9=Chance of Rain
TTITLE10=Plank Spank
TTITLE11=You've Got a Problem
EXTD=
EXTT0=
EXTT1=
EXTT2=
EXTT3=
EXTT4=
EXTT5=
EXTT6=
EXTT7=
EXTT8=
EXTT9=
EXTT10=
EXTT11=
PLAYORDER=
